# xmcd
#
# Track frame offsets: 
#        150
#        34665
#        71317
#        84425
#        103530
#        150322
#
# Disc length: 2385 seconds
#
# Revision: 24
# Processed by: cddbd v1.5.2PL0 Copyright (c) Steve Scherf et al.
# Submitted via: ExactAudioCopy v1.0b3
#
DISCID=37094f06
DTITLE=Jean Michel Jarre - Oxygene
DYEAR=1976
DGENRE=Electronic
TTITLE0=Oxygene (Part I)
TTITLE1=Oxygene (Part II)
TTITLE2=Oxygene (Part III)
TTITLE3=Oxygene (Part IV)
TTITLE4=Oxygene (Part V)
TTITLE5=Oxygene (Part VI)
EXTD=YEAR - 1976 YEAR: 1976
EXTT0=
EXTT1=
EXTT2=
EXTT3=
EXTT4=
EXTT5=
PLAYORDER=
